<?xml version="1.0" standalone="no"?>
<!DOCTYPE svg PUBLIC "-//W3C//DTD SVG 20010904//EN"
 "http://www.w3.org/TR/2001/REC-SVG-20010904/DTD/svg10.dtd">
<svg version="1.0" xmlns="http://www.w3.org/2000/svg"
 width="88.000000pt" height="90.000000pt" viewBox="0 0 88.000000 90.000000"
 preserveAspectRatio="xMidYMid meet">

<g transform="translate(0.000000,90.000000) scale(0.100000,-0.100000)"
fill="#000000" stroke="none">
<path d="M325 852 c-193 -58 -319 -242 -302 -442 14 -163 117 -302 270 -363
41 -17 73 -21 152 -21 90 0 106 3 166 31 290 134 340 519 92 719 -102 83 -253
113 -378 76z m226 -38 c187 -56 307 -253 269 -440 -30 -145 -120 -247 -260
-294 -179 -61 -377 24 -463 199 -30 61 -32 73 -32 166 0 87 3 107 27 157 83
177 275 266 459 212z"/>
<path d="M300 699 c0 -78 1 -80 23 -77 14 2 22 10 22 21 0 13 13 23 39 32 41
14 56 29 56 57 0 32 -29 48 -86 48 l-54 0 0 -81z m94 36 c7 -19 -32 -41 -46
-27 -15 15 -2 42 21 42 10 0 21 -7 25 -15z"/>
<path d="M470 700 l0 -80 60 0 c46 0 60 3 60 14 0 10 -13 16 -37 18 -51 4 -59
35 -12 40 44 4 49 26 8 30 -50 5 -49 28 0 28 30 0 41 4 41 15 0 12 -13 15 -60
15 l-60 0 0 -80z"/>
<path d="M244 616 c-3 -8 8 -41 25 -75 37 -73 38 -81 6 -81 -18 0 -25 -5 -25
-20 0 -16 7 -20 38 -20 l38 0 54 -120 c30 -67 59 -122 65 -123 5 -1 34 53 64
121 l54 122 39 0 c31 0 38 3 38 20 0 15 -7 20 -29 20 l-30 0 34 77 c18 43 31
81 29 85 -14 22 -33 0 -65 -74 l-36 -83 -97 -3 -97 -3 -39 86 c-39 82 -55 100
-66 71z m276 -200 c0 -8 -71 -156 -75 -156 -4 0 -75 148 -75 156 0 2 34 4 75
4 41 0 75 -2 75 -4z"/>
</g>
</svg>
