<?xml version="1.0" standalone="no"?>
<!DOCTYPE svg PUBLIC "-//W3C//DTD SVG 20010904//EN"
 "http://www.w3.org/TR/2001/REC-SVG-20010904/DTD/svg10.dtd">
<svg version="1.0" xmlns="http://www.w3.org/2000/svg"
 width="88.000000pt" height="90.000000pt" viewBox="0 0 88.000000 90.000000"
 preserveAspectRatio="xMidYMid meet">

<g transform="translate(0.000000,90.000000) scale(0.100000,-0.100000)"
fill="#000000" stroke="none">
<path d="M319 827 c-158 -54 -260 -177 -289 -346 -9 -55 -8 -80 4 -134 34
-146 109 -243 235 -304 71 -35 82 -37 171 -38 70 0 108 5 145 19 122 46 211
134 257 251 18 48 23 79 23 155 -1 88 -4 100 -37 170 -98 202 -308 295 -509
227z m283 -49 c79 -37 149 -105 189 -186 32 -63 34 -74 34 -167 0 -88 -3 -107
-27 -157 -103 -220 -366 -295 -566 -160 -181 121 -222 379 -87 555 41 53 122
109 190 131 76 24 195 17 267 -16z"/>
<path d="M310 680 c0 -73 2 -80 20 -80 16 0 20 7 20 35 0 33 2 35 35 35 24 0
35 5 35 15 0 10 -11 15 -35 15 -49 0 -48 28 2 32 20 2 38 9 41 16 3 9 -13 12
-57 12 l-61 0 0 -80z"/>
<path d="M440 753 c1 -4 13 -39 28 -78 23 -58 32 -70 52 -73 23 -3 27 4 49 65
13 37 26 74 29 81 3 10 -2 13 -18 10 -17 -2 -26 -14 -38 -51 -17 -53 -25 -51
-45 8 -10 28 -21 41 -35 43 -12 2 -22 0 -22 -5z"/>
<path d="M245 601 c-3 -5 10 -42 30 -82 19 -40 35 -74 35 -75 0 -1 -12 -4 -27
-6 -17 -2 -29 -10 -31 -20 -3 -15 4 -18 37 -18 l41 0 49 -104 c27 -57 52 -114
56 -125 3 -12 10 -21 14 -21 5 0 33 55 63 123 l54 122 37 3 c29 3 37 7 37 23
0 14 -7 19 -25 19 -14 0 -25 3 -25 6 0 3 14 35 30 72 30 63 33 98 8 90 -6 -2
-28 -41 -47 -86 l-35 -82 -97 0 -96 0 -38 85 c-35 78 -55 100 -70 76z m275
-208 c0 -14 -63 -153 -69 -153 -6 0 -71 140 -71 153 0 4 32 7 70 7 39 0 70 -3
70 -7z"/>
</g>
</svg>
