<?xml version="1.0" standalone="no"?>
<!DOCTYPE svg PUBLIC "-//W3C//DTD SVG 20010904//EN"
 "http://www.w3.org/TR/2001/REC-SVG-20010904/DTD/svg10.dtd">
<svg version="1.0" xmlns="http://www.w3.org/2000/svg"
 width="86.000000pt" height="80.000000pt" viewBox="0 0 86.000000 80.000000"
 preserveAspectRatio="xMidYMid meet">

<g transform="translate(0.000000,80.000000) scale(0.100000,-0.100000)"
fill="#000000" stroke="none">
<path d="M233 765 c-134 -67 -220 -195 -230 -343 -10 -139 34 -250 136 -345
80 -75 87 -77 286 -77 l176 0 52 33 c279 180 252 602 -48 738 -60 27 -73 29
-183 29 -116 0 -121 -1 -189 -35z m309 -34 c91 -28 192 -129 225 -226 24 -71
22 -176 -6 -247 -29 -75 -99 -151 -175 -191 -57 -29 -68 -31 -161 -31 -121 0
-169 19 -249 94 -79 75 -111 150 -111 260 1 70 5 95 27 141 45 99 127 171 231
205 47 15 159 13 219 -5z"/>
<path d="M520 411 l0 -111 -40 0 -40 0 0 66 0 65 -32 -3 c-33 -3 -33 -3 -36
-65 l-3 -63 -34 0 c-28 0 -35 4 -35 20 0 16 -7 20 -30 20 -30 0 -30 -1 -30
-55 l0 -55 160 0 c130 0 160 3 160 14 0 8 7 17 15 20 13 5 15 26 13 128 l-3
123 -32 3 -33 3 0 -110z"/>
</g>
</svg>
