<?xml version="1.0" standalone="no"?>
<!DOCTYPE svg PUBLIC "-//W3C//DTD SVG 20010904//EN"
 "http://www.w3.org/TR/2001/REC-SVG-20010904/DTD/svg10.dtd">
<svg version="1.0" xmlns="http://www.w3.org/2000/svg"
 width="110.000000pt" height="110.000000pt" viewBox="0 0 110.000000 110.000000"
 preserveAspectRatio="xMidYMid meet">

<g transform="translate(0.000000,110.000000) scale(0.100000,-0.100000)"
fill="#000000" stroke="none">
<path d="M421 994 c-131 -35 -239 -125 -298 -250 -31 -65 -37 -90 -41 -162 -8
-149 26 -246 124 -351 40 -44 77 -71 132 -98 75 -38 77 -38 196 -38 118 0 123
1 196 36 138 66 237 199 260 349 29 193 -81 401 -256 485 -92 44 -216 55 -313
29z m39 -125 c-47 -74 -57 -109 -30 -109 6 0 25 23 42 50 17 28 33 50 34 50 2
0 4 -69 4 -152 l0 -153 -101 -103 c-56 -57 -103 -102 -105 -99 -2 2 1 28 8 56
10 44 9 54 -3 61 -20 13 -25 5 -49 -95 -13 -49 -26 -94 -30 -99 -5 -4 -21 11
-36 34 l-28 41 21 62 c12 34 49 141 83 237 34 96 69 195 77 220 9 25 22 51 29
59 16 17 128 42 132 29 2 -4 -20 -45 -48 -89z m223 70 c15 -6 27 -16 27 -22 0
-5 15 -53 34 -106 19 -53 62 -173 95 -268 34 -94 61 -179 61 -189 0 -18 -49
-88 -57 -81 -6 7 -43 159 -43 180 0 20 -27 34 -40 21 -6 -6 -6 -24 -1 -44 26
-102 29 -102 -88 15 l-111 110 0 155 0 155 31 -52 c29 -50 51 -65 63 -44 3 5
-17 49 -44 97 -27 49 -50 92 -50 95 0 8 87 -8 123 -22z m-455 -282 c-46 -130
-87 -232 -91 -228 -5 5 -11 44 -14 88 -9 132 33 242 130 336 27 26 51 46 53
44 2 -2 -33 -110 -78 -240z m622 165 c55 -66 92 -154 98 -231 5 -74 -4 -161
-17 -161 -4 0 -43 100 -86 223 -43 122 -80 229 -83 236 -9 23 52 -24 88 -67z
m-205 -413 c74 -75 93 -100 75 -95 -14 3 -44 9 -67 12 -38 6 -43 4 -43 -13 0
-16 16 -23 100 -44 55 -13 100 -27 100 -31 0 -13 -64 -56 -115 -78 -70 -31
-193 -38 -271 -16 -91 26 -202 106 -148 106 9 0 56 9 105 21 61 14 89 25 89
35 0 23 -21 25 -80 10 -30 -8 -57 -13 -59 -10 -6 6 191 204 204 204 6 0 55
-46 110 -101z"/>
</g>
</svg>
