<?xml version="1.0" standalone="no"?>
<!DOCTYPE svg PUBLIC "-//W3C//DTD SVG 20010904//EN"
 "http://www.w3.org/TR/2001/REC-SVG-20010904/DTD/svg10.dtd">
<svg version="1.0" xmlns="http://www.w3.org/2000/svg"
 width="80.000000pt" height="82.000000pt" viewBox="0 0 80.000000 82.000000"
 preserveAspectRatio="xMidYMid meet">

<g transform="translate(0.000000,82.000000) scale(0.100000,-0.100000)"
fill="#000000" stroke="none">
<path d="M518 699 c-167 -102 -200 -119 -217 -110 -71 39 -149 -38 -111 -110
11 -20 -12 -66 -138 -266 -45 -71 -52 -90 -52 -133 l0 -50 290 0 c160 0 290 2
290 5 0 3 -50 85 -111 182 -61 97 -117 190 -126 207 l-16 30 28 -18 c93 -61
374 -236 379 -236 3 0 6 139 6 310 0 242 -3 310 -12 310 -7 -1 -102 -55 -210
-121z m192 -184 c0 -190 -3 -245 -12 -245 -7 1 -89 49 -183 108 -231 147 -231
133 -3 274 95 58 179 107 186 107 9 1 12 -54 12 -244z m-312 -254 c61 -99 112
-182 112 -185 0 -3 -110 -6 -245 -6 -135 0 -245 3 -245 7 0 4 48 87 106 185
95 159 109 178 133 178 23 0 39 -21 139 -179z"/>
</g>
</svg>
