<?xml version="1.0" standalone="no"?>
<!DOCTYPE svg PUBLIC "-//W3C//DTD SVG 20010904//EN"
 "http://www.w3.org/TR/2001/REC-SVG-20010904/DTD/svg10.dtd">
<svg version="1.0" xmlns="http://www.w3.org/2000/svg"
 width="100.000000pt" height="94.000000pt" viewBox="0 0 100.000000 94.000000"
 preserveAspectRatio="xMidYMid meet">

<g transform="translate(0.000000,94.000000) scale(0.100000,-0.100000)"
fill="#000000" stroke="none">
<path d="M420 933 c-147 -25 -274 -121 -343 -262 -31 -64 -32 -70 -32 -192 0
-124 0 -125 38 -201 97 -197 322 -300 525 -242 120 35 204 94 267 190 58 87
77 160 73 274 -3 85 -8 103 -42 173 -90 187 -289 293 -486 260z m204 -54 l39
-14 102 -290 c79 -224 100 -294 93 -309 -19 -36 -93 -109 -144 -142 -75 -48
-151 -67 -248 -62 -129 8 -236 66 -313 170 l-35 48 97 278 c54 152 101 285
106 294 23 43 209 60 303 27z m-357 -61 c-2 -7 -36 -103 -75 -213 -97 -275
-92 -262 -102 -245 -5 8 -12 42 -15 76 -14 122 33 249 125 342 50 50 78 66 67
40z m536 -58 c84 -93 125 -223 106 -335 -4 -27 -8 -56 -8 -62 -2 -30 -19 -8
-38 50 -12 34 -49 139 -82 232 -34 94 -61 174 -61 178 0 16 39 -14 83 -63z"/>
<path d="M412 728 c3 -8 29 -15 64 -18 l59 -5 -62 -33 c-89 -46 -84 -62 17
-62 47 0 80 4 80 10 0 6 -28 10 -62 10 l-63 0 63 36 c43 24 62 41 62 55 0 17
-7 19 -81 19 -60 0 -80 -3 -77 -12z"/>
<path d="M410 510 c0 -27 5 -50 10 -50 6 0 10 18 10 40 0 38 2 40 30 40 28 0
30 -2 30 -40 0 -22 5 -40 10 -40 6 0 10 18 10 40 0 33 3 40 20 40 17 0 20 -7
20 -40 0 -22 5 -40 10 -40 6 0 10 23 10 50 l0 50 -80 0 -80 0 0 -50z"/>
<path d="M436 409 c-24 -19 -27 -27 -24 -73 l3 -51 38 -3 c36 -3 37 -3 37 32
0 20 -4 36 -10 36 -5 0 -10 -12 -10 -26 0 -19 -5 -25 -17 -22 -24 4 -30 70 -9
87 26 22 77 17 98 -9 19 -23 19 -44 3 -82 -4 -11 -3 -18 4 -18 17 0 33 50 26
82 -8 35 -49 68 -85 68 -15 0 -39 -9 -54 -21z"/>
</g>
</svg>
