<?xml version="1.0" standalone="no"?>
<!DOCTYPE svg PUBLIC "-//W3C//DTD SVG 20010904//EN"
 "http://www.w3.org/TR/2001/REC-SVG-20010904/DTD/svg10.dtd">
<svg version="1.0" xmlns="http://www.w3.org/2000/svg"
 width="110.000000pt" height="122.000000pt" viewBox="0 0 110.000000 122.000000"
 preserveAspectRatio="xMidYMid meet">

<g transform="translate(0.000000,122.000000) scale(0.100000,-0.100000)"
fill="#000000" stroke="none">
<path d="M335 1207 c-3 -7 -4 -105 -3 -217 l3 -205 75 -5 75 -5 3 -157 c1 -87
-1 -158 -6 -158 -8 0 -171 119 -292 212 -111 86 -132 99 -151 93 -18 -6 -19
-20 -19 -380 0 -362 1 -374 20 -380 14 -5 77 37 256 171 130 98 243 177 250
177 7 0 41 -21 76 -47 35 -26 141 -106 236 -177 130 -98 177 -129 192 -124 19
6 20 17 20 380 0 359 -1 374 -19 380 -14 4 -73 -34 -226 -150 -113 -85 -210
-155 -216 -155 -6 0 -8 60 -7 158 l3 157 78 3 77 3 -2 217 -3 217 -208 3
c-163 2 -209 0 -212 -11z m385 -112 l0 -85 -175 0 -175 0 0 85 0 85 175 0 175
0 0 -85z m-88 -132 c-51 -2 -132 -2 -180 0 -48 1 -6 3 93 3 99 0 138 -2 87 -3z
m-144 -95 l3 -48 -60 0 -61 0 0 50 0 51 58 -3 57 -3 3 -47z m79 -193 c2 -134
-1 -246 -6 -254 -8 -12 -12 -12 -25 -2 -14 12 -16 47 -16 251 0 130 3 240 7
244 4 4 14 5 23 4 13 -3 15 -36 17 -243z m153 195 l0 -50 -60 0 -60 0 0 43 c0
24 3 47 7 50 3 4 30 7 60 7 l53 0 0 -50z m-505 -259 c54 -42 109 -83 121 -91
65 -45 174 -131 173 -138 0 -4 -68 -56 -150 -117 -83 -60 -156 -115 -162 -120
-28 -25 -124 -95 -130 -95 -4 0 -7 151 -7 336 l0 336 28 -18 c15 -10 72 -52
127 -93z m811 -559 c-3 -2 -36 20 -75 49 -38 30 -137 104 -220 164 -82 61
-150 113 -150 117 -1 3 99 82 222 174 l222 167 3 -333 c1 -183 0 -335 -2 -338z"/>
<path d="M360 110 c0 -99 0 -101 23 -98 17 2 23 10 25 40 3 35 5 37 40 40 26
2 38 8 40 21 3 14 -4 17 -37 17 -34 0 -41 3 -41 20 0 17 7 20 46 20 38 0 45 3
42 18 -3 14 -16 18 -71 20 l-67 3 0 -101z"/>
<path d="M518 205 c-3 -3 3 -29 13 -58 11 -29 27 -71 35 -95 14 -36 20 -42 45
-42 16 0 31 6 33 13 3 6 18 50 35 95 17 46 31 86 31 89 0 2 -12 3 -26 1 -23
-3 -29 -11 -46 -67 -11 -35 -23 -60 -28 -55 -4 5 -17 34 -28 64 -13 37 -26 56
-39 58 -10 2 -21 0 -25 -3z"/>
</g>
</svg>
