<?xml version="1.0" standalone="no"?>
<!DOCTYPE svg PUBLIC "-//W3C//DTD SVG 20010904//EN"
 "http://www.w3.org/TR/2001/REC-SVG-20010904/DTD/svg10.dtd">
<svg version="1.0" xmlns="http://www.w3.org/2000/svg"
 width="98.000000pt" height="70.000000pt" viewBox="0 0 98.000000 70.000000"
 preserveAspectRatio="xMidYMid meet">

<g transform="translate(0.000000,70.000000) scale(0.100000,-0.100000)"
fill="#000000" stroke="none">
<path d="M0 345 c0 -250 3 -315 12 -309 7 5 107 68 223 141 l210 133 5 -87 c4
-73 8 -88 23 -91 15 -3 17 6 17 87 0 50 2 91 4 91 5 0 229 -140 374 -233 40
-26 74 -47 77 -47 3 0 5 142 5 315 0 173 -2 315 -4 315 -3 0 -104 -61 -225
-135 -120 -74 -222 -135 -225 -135 -3 0 -6 39 -6 86 0 76 -2 85 -17 82 -15 -3
-18 -16 -21 -86 -3 -81 -3 -82 -25 -71 -12 7 -110 66 -217 132 -107 66 -198
121 -202 124 -5 2 -8 -138 -8 -312z m241 124 c104 -62 188 -116 189 -119 0 -6
-385 -250 -394 -250 -3 0 -6 111 -6 246 0 181 3 245 12 242 6 -2 96 -56 199
-119z m679 -124 c0 -141 -4 -245 -9 -245 -16 0 -386 240 -386 250 0 11 362
238 383 239 9 1 12 -54 12 -244z"/>
</g>
</svg>
