<?xml version="1.0" standalone="no"?>
<!DOCTYPE svg PUBLIC "-//W3C//DTD SVG 20010904//EN"
 "http://www.w3.org/TR/2001/REC-SVG-20010904/DTD/svg10.dtd">
<svg version="1.0" xmlns="http://www.w3.org/2000/svg"
 width="88.000000pt" height="90.000000pt" viewBox="0 0 88.000000 90.000000"
 preserveAspectRatio="xMidYMid meet">

<g transform="translate(0.000000,90.000000) scale(0.100000,-0.100000)"
fill="#000000" stroke="none">
<path d="M310 856 c-119 -33 -226 -120 -277 -225 -24 -49 -28 -70 -31 -168 -4
-135 9 -185 72 -271 46 -63 121 -118 201 -148 69 -26 211 -26 280 1 165 63
269 197 282 364 10 132 -30 240 -124 335 -102 104 -267 149 -403 112z m260
-58 c80 -36 153 -107 192 -186 31 -62 33 -74 33 -167 0 -88 -3 -107 -27 -157
-37 -80 -107 -152 -187 -191 -61 -30 -73 -32 -166 -32 -88 0 -107 3 -157 27
-80 37 -152 107 -191 187 -30 61 -32 73 -32 166 0 87 3 107 27 157 46 99 123
169 230 209 74 27 201 21 278 -13z"/>
<path d="M272 703 c3 -70 5 -78 23 -78 13 0 21 8 23 21 2 15 13 24 34 28 42 8
58 23 58 55 0 40 -18 51 -82 51 l-59 0 3 -77z m94 35 c7 -10 -20 -38 -38 -38
-4 0 -8 11 -8 25 0 18 5 25 19 25 11 0 23 -5 27 -12z"/>
<path d="M440 765 c0 -8 5 -15 10 -15 6 0 10 -22 10 -50 0 -27 -4 -50 -10 -50
-5 0 -10 -7 -10 -15 0 -11 12 -15 45 -15 33 0 45 4 45 15 0 8 -4 15 -10 15 -5
0 -10 23 -10 50 0 28 5 50 10 50 6 0 10 7 10 15 0 11 -12 15 -45 15 -33 0 -45
-4 -45 -15z"/>
<path d="M214 617 c-2 -7 9 -41 26 -75 36 -76 37 -82 5 -82 -18 0 -25 -5 -25
-20 0 -17 7 -20 39 -20 l38 0 58 -125 c32 -69 61 -125 65 -125 4 0 31 55 61
123 l54 122 38 3 c29 3 37 7 37 23 0 14 -7 19 -25 19 -14 0 -25 2 -25 4 0 2
14 36 30 75 29 68 31 91 9 91 -5 0 -27 -38 -48 -85 l-40 -85 -96 0 -96 0 -39
85 c-37 81 -55 100 -66 72z m272 -214 c-17 -47 -62 -142 -67 -143 -6 0 -13 15
-55 108 l-24 52 76 0 c68 0 75 -2 70 -17z"/>
</g>
</svg>
